<?xml version="1.0" encoding="utf-8"?>
<!-- Generator: Adobe Illustrator 23.0.1, SVG Export Plug-In . SVG Version: 6.00 Build 0)  -->
<svg version="1.1" id="Layer_1" xmlns="http://www.w3.org/2000/svg" xmlns:xlink="http://www.w3.org/1999/xlink" x="0px" y="0px"
	 viewBox="0 0 1080 1080" style="enable-background:new 0 0 1080 1080;" xml:space="preserve">
<style type="text/css">
	.st0{fill:#45256B;}
	.st1{fill:#FECC0A;}
	.st2{font-family:'Agrandir-TextBold';}
	.st3{font-size:42px;}
</style>
<rect x="1.12" y="0" class="st0" width="1080" height="1080"/>
<g>
	<g>
		<g>
			<path class="st1" d="M518.59,385.7c7.06,0,13.79,0,20.51,0c2.84,0,5.67-0.01,8.51,0.01c0.35,0,0.99-0.29,0.96,0.45
				c-0.03,0.71-0.65,0.41-1.01,0.41c-9.43,0.02-18.85,0.01-28.28,0.02c-0.76,0-1.54-0.16-2.28,0.14c-0.4,0.16-0.63,0.01-0.77-0.38
				c-0.15-0.41,0.09-0.57,0.39-0.79c4.4-3.25,4.13-7.7,1.75-11.47c-2.28-3.61-6.67-4.58-10.59-2.36c-5.19,2.93-5.36,6.46-4.19,10.64
				c0.53,1.89,2.52,3.26,4.59,3.32c1.83,0.05,3.75-1.22,4.38-2.91c0.47-1.26-0.04-2.93-1.08-3.52c-1.2-0.68-2.89-0.41-3.67,0.59
				c-0.88,1.12-0.77,2.7,0.31,3.78c0.33,0.33,0.86,0.56,0.32,1.09c-0.6,0.58-0.83-0.13-1.12-0.4c-1.35-1.25-1.61-3.34-0.64-4.84
				c1.02-1.57,3.21-2.18,5-1.39c1.55,0.68,2.5,2.59,2.14,4.29c-0.52,2.45-2.73,4.38-5.32,4.42c-2.59,0.04-4.93-1.14-5.8-3.82
				c-2.18-6.73,0.58-11.28,6.79-13.16c5.12-1.55,10.22,1.84,11.37,7.09C521.56,380.18,520.73,382.92,518.59,385.7z"/>
			<path class="st1" d="M526.49,391.64c-6.78,0-13.57,0-20.35,0c-0.38,0-0.77,0-1.15-0.02c-0.32-0.01-0.59-0.12-0.54-0.5
				c0.04-0.31,0.31-0.32,0.55-0.33c0.29-0.01,0.58-0.01,0.87-0.01c13.85,0,27.71,0,41.56,0c0.29,0,0.58,0,0.87,0.01
				c0.24,0.01,0.51,0.04,0.54,0.34c0.04,0.39-0.25,0.48-0.55,0.49c-0.38,0.02-0.77,0.01-1.15,0.01
				C540.24,391.64,533.36,391.64,526.49,391.64z"/>
			<path class="st1" d="M526.51,395.75c-6.77,0-13.55,0-20.32,0c-0.34,0-0.67-0.01-1.01,0c-0.28,0.01-0.46-0.11-0.49-0.4
				c-0.04-0.42,0.25-0.44,0.56-0.44c0.29,0,0.58,0,0.86,0c13.6,0,27.2,0,40.79,0c0.14,0,0.3-0.03,0.43,0.01
				c0.35,0.1,1.01-0.31,0.97,0.43c-0.04,0.67-0.67,0.39-1.04,0.4C540.35,395.75,533.43,395.75,526.51,395.75z"/>
		</g>
		<g>
			<polygon class="st1" points="258.43,438.23 258.32,580.89 399.29,580.89 397.26,436.56 327.84,487.22 			"/>
			<path class="st1" d="M410.08,439.13v141.76h121.4l-21.43-39.96C510.05,540.94,601.87,415.08,410.08,439.13z"/>
			<polygon class="st1" points="541.12,439.1 541.12,580.89 677.17,580.89 627.27,510 677.35,439.26 			"/>
			<polygon class="st1" points="684.12,440.13 806.94,440.13 806.94,506.55 779.48,506.55 778.81,580.89 712.04,580.89 
				711.37,508.72 684.12,508.49 			"/>
		</g>
	</g>
	<text transform="matrix(1 0 0 1 256.422 626.8101)" class="st1 st2 st3">Transformative Consulting</text>
</g>
</svg>
