<svg width="660" height="344" viewBox="0 0 660 344" fill="none" xmlns="http://www.w3.org/2000/svg">
<rect width="660" height="344" fill="#44086D"/>
<path d="M328.628 43.2576C335.688 43.2576 342.418 43.2576 349.138 43.2576C351.978 43.2576 354.808 43.2476 357.648 43.2676C357.998 43.2676 358.638 42.9776 358.608 43.7176C358.578 44.4276 357.958 44.1276 357.598 44.1276C348.168 44.1476 338.748 44.1376 329.318 44.1476C328.558 44.1476 327.778 43.9876 327.038 44.2876C326.638 44.4476 326.408 44.2976 326.268 43.9076C326.118 43.4976 326.358 43.3376 326.658 43.1176C331.058 39.8676 330.788 35.4176 328.408 31.6476C326.128 28.0376 321.738 27.0676 317.818 29.2876C312.628 32.2176 312.458 35.7476 313.628 39.9276C314.158 41.8176 316.148 43.1876 318.218 43.2476C320.048 43.2976 321.968 42.0276 322.598 40.3376C323.068 39.0776 322.558 37.4076 321.518 36.8176C320.318 36.1376 318.628 36.4076 317.848 37.4076C316.968 38.5276 317.078 40.1076 318.158 41.1876C318.488 41.5176 319.018 41.7476 318.478 42.2776C317.878 42.8576 317.648 42.1476 317.358 41.8776C316.008 40.6276 315.748 38.5376 316.718 37.0376C317.738 35.4676 319.928 34.8576 321.718 35.6476C323.268 36.3276 324.218 38.2376 323.858 39.9376C323.338 42.3876 321.128 44.3176 318.538 44.3576C315.948 44.3976 313.608 43.2176 312.738 40.5376C310.558 33.8076 313.318 29.2576 319.528 27.3776C324.648 25.8276 329.748 29.2176 330.898 34.4676C331.598 37.7376 330.768 40.4776 328.628 43.2576Z" fill="#FECC0A"/>
<path d="M336.528 49.1976C329.748 49.1976 322.958 49.1976 316.178 49.1976C315.798 49.1976 315.408 49.1976 315.028 49.1776C314.708 49.1676 314.438 49.0576 314.488 48.6776C314.528 48.3676 314.798 48.3576 315.038 48.3476C315.328 48.3376 315.618 48.3376 315.908 48.3376C329.758 48.3376 343.618 48.3376 357.468 48.3376C357.758 48.3376 358.048 48.3376 358.338 48.3476C358.578 48.3576 358.848 48.3876 358.878 48.6876C358.918 49.0776 358.628 49.1676 358.328 49.1776C357.948 49.1976 357.558 49.1876 357.178 49.1876C350.278 49.1976 343.398 49.1976 336.528 49.1976Z" fill="#FECC0A"/>
<path d="M336.548 53.3076C329.778 53.3076 322.998 53.3076 316.228 53.3076C315.888 53.3076 315.558 53.2976 315.218 53.3076C314.938 53.3176 314.758 53.1976 314.728 52.9076C314.688 52.4876 314.978 52.4676 315.288 52.4676C315.578 52.4676 315.868 52.4676 316.148 52.4676C329.748 52.4676 343.348 52.4676 356.938 52.4676C357.078 52.4676 357.238 52.4376 357.368 52.4776C357.718 52.5776 358.378 52.1676 358.338 52.9076C358.298 53.5776 357.668 53.2976 357.298 53.3076C350.388 53.3076 343.468 53.3076 336.548 53.3076Z" fill="#FECC0A"/>
<path d="M61.11 95.7876L61 238.448H201.97L199.94 94.1176L130.52 144.778L61.11 95.7876Z" fill="#FECC0A"/>
<path d="M212.76 96.6876V238.448H334.16L312.73 198.488C312.73 198.498 404.55 72.6376 212.76 96.6876Z" fill="#FECC0A"/>
<path d="M343.8 96.6576V238.448H479.85L429.95 167.558L480.03 96.8176L343.8 96.6576Z" fill="#FECC0A"/>
<path d="M486.8 97.6876H609.62V164.108H582.16L581.49 238.448H514.72L514.05 166.278L486.8 166.048V97.6876Z" fill="#FECC0A"/>
<path d="M63.0284 256.183V252.902H85.9375V256.183H76.3324V283.448H72.6335V256.183H63.0284ZM88.79 283.448V260.539H92.1905V263.999H92.4292C92.8468 262.865 93.6025 261.946 94.6962 261.24C95.79 260.534 97.0229 260.181 98.3951 260.181C98.6536 260.181 98.9767 260.186 99.3645 260.196C99.7523 260.205 100.046 260.22 100.244 260.24V263.82C100.125 263.79 99.8517 263.745 99.4242 263.686C99.0066 263.616 98.5641 263.581 98.0968 263.581C96.9831 263.581 95.9888 263.815 95.1138 264.282C94.2488 264.74 93.5627 265.376 93.0556 266.191C92.5584 266.997 92.3098 267.916 92.3098 268.95V283.448H88.79ZM111.158 283.985C109.707 283.985 108.389 283.711 107.206 283.164C106.023 282.607 105.083 281.807 104.387 280.763C103.691 279.709 103.343 278.436 103.343 276.945C103.343 275.632 103.602 274.568 104.119 273.753C104.636 272.928 105.327 272.281 106.192 271.814C107.057 271.347 108.011 270.999 109.055 270.77C110.109 270.531 111.168 270.343 112.232 270.203C113.624 270.024 114.753 269.89 115.618 269.801C116.493 269.701 117.129 269.537 117.527 269.308C117.935 269.08 118.138 268.682 118.138 268.115V267.996C118.138 266.524 117.736 265.381 116.93 264.566C116.135 263.75 114.927 263.343 113.306 263.343C111.626 263.343 110.308 263.71 109.354 264.446C108.399 265.182 107.728 265.968 107.34 266.803L103.999 265.61C104.596 264.218 105.391 263.134 106.386 262.358C107.39 261.573 108.484 261.026 109.667 260.718C110.86 260.399 112.033 260.24 113.187 260.24C113.923 260.24 114.768 260.33 115.722 260.509C116.687 260.678 117.616 261.031 118.511 261.568C119.416 262.105 120.167 262.915 120.763 263.999C121.36 265.083 121.658 266.534 121.658 268.354V283.448H118.138V280.345H117.96C117.721 280.843 117.323 281.374 116.766 281.941C116.21 282.508 115.469 282.99 114.544 283.388C113.619 283.786 112.491 283.985 111.158 283.985ZM111.695 280.823C113.087 280.823 114.261 280.549 115.215 280.002C116.18 279.455 116.906 278.749 117.393 277.884C117.89 277.019 118.138 276.11 118.138 275.155V271.933C117.989 272.112 117.661 272.276 117.154 272.426C116.657 272.565 116.08 272.689 115.424 272.798C114.778 272.898 114.146 272.987 113.53 273.067C112.923 273.137 112.431 273.196 112.053 273.246C111.138 273.365 110.283 273.559 109.488 273.828C108.702 274.086 108.066 274.479 107.579 275.006C107.102 275.523 106.863 276.229 106.863 277.124C106.863 278.347 107.315 279.271 108.22 279.898C109.135 280.514 110.293 280.823 111.695 280.823ZM131.603 269.666V283.448H128.083V260.539H131.483V264.118H131.782C132.319 262.955 133.134 262.02 134.228 261.314C135.322 260.598 136.733 260.24 138.464 260.24C140.015 260.24 141.372 260.558 142.535 261.195C143.699 261.821 144.604 262.776 145.25 264.058C145.896 265.331 146.219 266.942 146.219 268.891V283.448H142.699V269.129C142.699 267.33 142.232 265.928 141.297 264.923C140.363 263.909 139.08 263.402 137.449 263.402C136.326 263.402 135.322 263.646 134.437 264.133C133.562 264.62 132.871 265.331 132.363 266.266C131.856 267.2 131.603 268.334 131.603 269.666ZM168.879 265.669L165.717 266.564C165.518 266.037 165.224 265.525 164.837 265.028C164.459 264.521 163.942 264.103 163.286 263.775C162.629 263.447 161.789 263.283 160.765 263.283C159.363 263.283 158.195 263.606 157.26 264.252C156.335 264.889 155.873 265.699 155.873 266.683C155.873 267.558 156.191 268.249 156.827 268.757C157.464 269.264 158.458 269.686 159.81 270.024L163.211 270.86C165.259 271.357 166.786 272.117 167.79 273.142C168.794 274.156 169.296 275.463 169.296 277.064C169.296 278.377 168.918 279.55 168.163 280.584C167.417 281.618 166.373 282.433 165.031 283.03C163.688 283.627 162.127 283.925 160.347 283.925C158.011 283.925 156.077 283.418 154.545 282.404C153.014 281.389 152.045 279.908 151.637 277.959L154.978 277.124C155.296 278.357 155.898 279.281 156.783 279.898C157.678 280.514 158.846 280.823 160.288 280.823C161.928 280.823 163.231 280.475 164.195 279.779C165.17 279.073 165.657 278.227 165.657 277.243C165.657 276.448 165.379 275.781 164.822 275.245C164.265 274.698 163.41 274.29 162.256 274.021L158.438 273.127C156.34 272.629 154.799 271.859 153.815 270.815C152.84 269.761 152.353 268.443 152.353 266.862C152.353 265.57 152.716 264.426 153.442 263.432C154.178 262.438 155.177 261.657 156.44 261.09C157.712 260.524 159.154 260.24 160.765 260.24C163.032 260.24 164.812 260.737 166.104 261.732C167.407 262.726 168.332 264.039 168.879 265.669ZM184.796 260.539V263.521H172.447V260.539H184.796ZM176.146 283.448V257.377C176.146 256.064 176.454 254.97 177.07 254.095C177.687 253.22 178.487 252.564 179.472 252.127C180.456 251.689 181.495 251.47 182.589 251.47C183.454 251.47 184.16 251.54 184.707 251.679C185.254 251.818 185.661 251.948 185.93 252.067L184.916 255.11C184.737 255.05 184.488 254.975 184.17 254.886C183.862 254.796 183.454 254.752 182.947 254.752C181.784 254.752 180.943 255.045 180.426 255.632C179.919 256.218 179.666 257.078 179.666 258.212V283.448H176.146ZM198.093 283.925C196.025 283.925 194.21 283.433 192.649 282.448C191.098 281.464 189.885 280.087 189.01 278.317C188.145 276.547 187.712 274.479 187.712 272.112C187.712 269.726 188.145 267.643 189.01 265.863C189.885 264.083 191.098 262.701 192.649 261.717C194.21 260.732 196.025 260.24 198.093 260.24C200.161 260.24 201.971 260.732 203.522 261.717C205.083 262.701 206.296 264.083 207.161 265.863C208.036 267.643 208.474 269.726 208.474 272.112C208.474 274.479 208.036 276.547 207.161 278.317C206.296 280.087 205.083 281.464 203.522 282.448C201.971 283.433 200.161 283.925 198.093 283.925ZM198.093 280.763C199.664 280.763 200.956 280.36 201.971 279.555C202.985 278.749 203.736 277.691 204.223 276.378C204.71 275.066 204.954 273.644 204.954 272.112C204.954 270.581 204.71 269.154 204.223 267.832C203.736 266.509 202.985 265.441 201.971 264.625C200.956 263.81 199.664 263.402 198.093 263.402C196.522 263.402 195.229 263.81 194.215 264.625C193.201 265.441 192.45 266.509 191.963 267.832C191.476 269.154 191.232 270.581 191.232 272.112C191.232 273.644 191.476 275.066 191.963 276.378C192.45 277.691 193.201 278.749 194.215 279.555C195.229 280.36 196.522 280.763 198.093 280.763ZM213.847 283.448V260.539H217.247V263.999H217.486C217.903 262.865 218.659 261.946 219.753 261.24C220.847 260.534 222.08 260.181 223.452 260.181C223.71 260.181 224.033 260.186 224.421 260.196C224.809 260.205 225.102 260.22 225.301 260.24V263.82C225.182 263.79 224.908 263.745 224.481 263.686C224.063 263.616 223.621 263.581 223.153 263.581C222.04 263.581 221.045 263.815 220.17 264.282C219.305 264.74 218.619 265.376 218.112 266.191C217.615 266.997 217.366 267.916 217.366 268.95V283.448H213.847ZM229.474 283.448V260.539H232.874V264.118H233.172C233.65 262.895 234.42 261.946 235.484 261.269C236.548 260.583 237.826 260.24 239.317 260.24C240.829 260.24 242.086 260.583 243.091 261.269C244.105 261.946 244.895 262.895 245.462 264.118H245.701C246.287 262.935 247.167 261.995 248.341 261.299C249.514 260.593 250.921 260.24 252.562 260.24C254.61 260.24 256.285 260.882 257.588 262.164C258.89 263.437 259.542 265.421 259.542 268.115V283.448H256.022V268.115C256.022 266.425 255.559 265.217 254.635 264.491C253.71 263.765 252.621 263.402 251.368 263.402C249.758 263.402 248.51 263.889 247.625 264.864C246.74 265.828 246.297 267.051 246.297 268.533V283.448H242.718V267.757C242.718 266.455 242.295 265.406 241.45 264.61C240.605 263.805 239.516 263.402 238.184 263.402C237.269 263.402 236.414 263.646 235.618 264.133C234.833 264.62 234.197 265.296 233.709 266.161C233.232 267.017 232.993 268.006 232.993 269.129V283.448H229.474ZM272.719 283.985C271.267 283.985 269.95 283.711 268.767 283.164C267.583 282.607 266.644 281.807 265.948 280.763C265.252 279.709 264.904 278.436 264.904 276.945C264.904 275.632 265.162 274.568 265.679 273.753C266.196 272.928 266.887 272.281 267.752 271.814C268.617 271.347 269.572 270.999 270.616 270.77C271.67 270.531 272.729 270.343 273.793 270.203C275.185 270.024 276.313 269.89 277.178 269.801C278.053 269.701 278.69 269.537 279.088 269.308C279.495 269.08 279.699 268.682 279.699 268.115V267.996C279.699 266.524 279.296 265.381 278.491 264.566C277.695 263.75 276.487 263.343 274.867 263.343C273.186 263.343 271.869 263.71 270.914 264.446C269.96 265.182 269.289 265.968 268.901 266.803L265.56 265.61C266.156 264.218 266.952 263.134 267.946 262.358C268.95 261.573 270.044 261.026 271.227 260.718C272.421 260.399 273.594 260.24 274.747 260.24C275.483 260.24 276.328 260.33 277.283 260.509C278.247 260.678 279.177 261.031 280.072 261.568C280.977 262.105 281.727 262.915 282.324 263.999C282.921 265.083 283.219 266.534 283.219 268.354V283.448H279.699V280.345H279.52C279.281 280.843 278.884 281.374 278.327 281.941C277.77 282.508 277.029 282.99 276.105 283.388C275.18 283.786 274.051 283.985 272.719 283.985ZM273.256 280.823C274.648 280.823 275.821 280.549 276.776 280.002C277.74 279.455 278.466 278.749 278.953 277.884C279.45 277.019 279.699 276.11 279.699 275.155V271.933C279.55 272.112 279.222 272.276 278.715 272.426C278.218 272.565 277.641 272.689 276.985 272.798C276.338 272.898 275.707 272.987 275.09 273.067C274.484 273.137 273.992 273.196 273.614 273.246C272.699 273.365 271.844 273.559 271.048 273.828C270.263 274.086 269.627 274.479 269.139 275.006C268.662 275.523 268.423 276.229 268.423 277.124C268.423 278.347 268.876 279.271 269.781 279.898C270.695 280.514 271.854 280.823 273.256 280.823ZM299.607 260.539V263.521H287.734V260.539H299.607ZM291.195 255.05H294.714V276.885C294.714 277.879 294.859 278.625 295.147 279.122C295.445 279.61 295.823 279.938 296.281 280.107C296.748 280.266 297.24 280.345 297.757 280.345C298.145 280.345 298.463 280.325 298.712 280.286C298.96 280.236 299.159 280.196 299.308 280.166L300.024 283.328C299.786 283.418 299.452 283.507 299.025 283.597C298.597 283.696 298.055 283.746 297.399 283.746C296.405 283.746 295.43 283.532 294.476 283.105C293.531 282.677 292.746 282.026 292.119 281.151C291.503 280.276 291.195 279.172 291.195 277.84V255.05ZM304.901 283.448V260.539H308.421V283.448H304.901ZM306.691 256.72C306.005 256.72 305.413 256.487 304.916 256.019C304.429 255.552 304.185 254.99 304.185 254.334C304.185 253.678 304.429 253.116 304.916 252.649C305.413 252.181 306.005 251.948 306.691 251.948C307.377 251.948 307.964 252.181 308.451 252.649C308.948 253.116 309.197 253.678 309.197 254.334C309.197 254.99 308.948 255.552 308.451 256.019C307.964 256.487 307.377 256.72 306.691 256.72ZM333.601 260.539L325.129 283.448H321.55L313.078 260.539H316.896L323.22 278.794H323.459L329.783 260.539H333.601ZM347.032 283.925C344.824 283.925 342.92 283.438 341.319 282.463C339.729 281.479 338.501 280.107 337.635 278.347C336.78 276.577 336.353 274.519 336.353 272.172C336.353 269.825 336.78 267.757 337.635 265.968C338.501 264.168 339.704 262.766 341.245 261.762C342.796 260.747 344.606 260.24 346.674 260.24C347.867 260.24 349.045 260.439 350.209 260.837C351.372 261.235 352.431 261.881 353.385 262.776C354.34 263.661 355.101 264.834 355.667 266.296C356.234 267.757 356.518 269.557 356.518 271.695V273.186H338.858V270.144H352.938C352.938 268.851 352.68 267.698 352.162 266.683C351.655 265.669 350.93 264.869 349.985 264.282C349.05 263.696 347.947 263.402 346.674 263.402C345.272 263.402 344.059 263.75 343.035 264.446C342.02 265.132 341.24 266.027 340.693 267.131C340.146 268.235 339.873 269.418 339.873 270.681V272.709C339.873 274.439 340.171 275.906 340.768 277.109C341.374 278.302 342.214 279.212 343.288 279.838C344.362 280.455 345.61 280.763 347.032 280.763C347.956 280.763 348.792 280.634 349.537 280.375C350.293 280.107 350.944 279.709 351.491 279.182C352.038 278.645 352.461 277.979 352.759 277.183L356.16 278.138C355.802 279.291 355.2 280.306 354.355 281.181C353.51 282.046 352.466 282.722 351.223 283.209C349.98 283.686 348.583 283.925 347.032 283.925ZM398.741 262.448H395.042C394.824 261.384 394.441 260.449 393.894 259.644C393.357 258.838 392.701 258.162 391.925 257.615C391.16 257.058 390.309 256.641 389.375 256.362C388.44 256.084 387.466 255.945 386.452 255.945C384.602 255.945 382.927 256.412 381.425 257.347C379.934 258.281 378.746 259.659 377.861 261.478C376.986 263.298 376.548 265.53 376.548 268.175C376.548 270.82 376.986 273.052 377.861 274.872C378.746 276.691 379.934 278.068 381.425 279.003C382.927 279.938 384.602 280.405 386.452 280.405C387.466 280.405 388.44 280.266 389.375 279.987C390.309 279.709 391.16 279.296 391.925 278.749C392.701 278.193 393.357 277.512 393.894 276.706C394.441 275.891 394.824 274.956 395.042 273.902H398.741C398.463 275.463 397.956 276.86 397.22 278.093C396.484 279.326 395.569 280.375 394.476 281.24C393.382 282.095 392.154 282.747 390.792 283.194C389.439 283.642 387.993 283.865 386.452 283.865C383.846 283.865 381.53 283.229 379.501 281.956C377.473 280.683 375.877 278.874 374.714 276.527C373.55 274.181 372.969 271.396 372.969 268.175C372.969 264.953 373.55 262.169 374.714 259.823C375.877 257.476 377.473 255.666 379.501 254.394C381.53 253.121 383.846 252.485 386.452 252.485C387.993 252.485 389.439 252.708 390.792 253.156C392.154 253.603 393.382 254.259 394.476 255.124C395.569 255.98 396.484 257.024 397.22 258.257C397.956 259.48 398.463 260.877 398.741 262.448ZM413.548 283.925C411.48 283.925 409.665 283.433 408.104 282.448C406.553 281.464 405.34 280.087 404.465 278.317C403.6 276.547 403.167 274.479 403.167 272.112C403.167 269.726 403.6 267.643 404.465 265.863C405.34 264.083 406.553 262.701 408.104 261.717C409.665 260.732 411.48 260.24 413.548 260.24C415.616 260.24 417.426 260.732 418.977 261.717C420.538 262.701 421.751 264.083 422.616 265.863C423.491 267.643 423.929 269.726 423.929 272.112C423.929 274.479 423.491 276.547 422.616 278.317C421.751 280.087 420.538 281.464 418.977 282.448C417.426 283.433 415.616 283.925 413.548 283.925ZM413.548 280.763C415.119 280.763 416.412 280.36 417.426 279.555C418.44 278.749 419.191 277.691 419.678 276.378C420.165 275.066 420.409 273.644 420.409 272.112C420.409 270.581 420.165 269.154 419.678 267.832C419.191 266.509 418.44 265.441 417.426 264.625C416.412 263.81 415.119 263.402 413.548 263.402C411.977 263.402 410.684 263.81 409.67 264.625C408.656 265.441 407.905 266.509 407.418 267.832C406.931 269.154 406.687 270.581 406.687 272.112C406.687 273.644 406.931 275.066 407.418 276.378C407.905 277.691 408.656 278.749 409.67 279.555C410.684 280.36 411.977 280.763 413.548 280.763ZM432.822 269.666V283.448H429.302V260.539H432.702V264.118H433.001C433.537 262.955 434.353 262.02 435.447 261.314C436.54 260.598 437.952 260.24 439.682 260.24C441.233 260.24 442.591 260.558 443.754 261.195C444.917 261.821 445.822 262.776 446.469 264.058C447.115 265.331 447.438 266.942 447.438 268.891V283.448H443.918V269.129C443.918 267.33 443.451 265.928 442.516 264.923C441.581 263.909 440.299 263.402 438.668 263.402C437.545 263.402 436.54 263.646 435.655 264.133C434.78 264.62 434.089 265.331 433.582 266.266C433.075 267.2 432.822 268.334 432.822 269.666ZM470.097 265.669L466.935 266.564C466.737 266.037 466.443 265.525 466.055 265.028C465.678 264.521 465.161 264.103 464.504 263.775C463.848 263.447 463.008 263.283 461.984 263.283C460.582 263.283 459.413 263.606 458.479 264.252C457.554 264.889 457.092 265.699 457.092 266.683C457.092 267.558 457.41 268.249 458.046 268.757C458.683 269.264 459.677 269.686 461.029 270.024L464.43 270.86C466.478 271.357 468.004 272.117 469.009 273.142C470.013 274.156 470.515 275.463 470.515 277.064C470.515 278.377 470.137 279.55 469.381 280.584C468.636 281.618 467.592 282.433 466.249 283.03C464.907 283.627 463.346 283.925 461.566 283.925C459.229 283.925 457.295 283.418 455.764 282.404C454.233 281.389 453.263 279.908 452.856 277.959L456.197 277.124C456.515 278.357 457.116 279.281 458.001 279.898C458.896 280.514 460.065 280.823 461.506 280.823C463.147 280.823 464.45 280.475 465.414 279.779C466.388 279.073 466.876 278.227 466.876 277.243C466.876 276.448 466.597 275.781 466.04 275.245C465.484 274.698 464.629 274.29 463.475 274.021L459.657 273.127C457.559 272.629 456.018 271.859 455.033 270.815C454.059 269.761 453.572 268.443 453.572 266.862C453.572 265.57 453.935 264.426 454.661 263.432C455.396 262.438 456.396 261.657 457.658 261.09C458.931 260.524 460.373 260.24 461.984 260.24C464.251 260.24 466.031 260.737 467.323 261.732C468.626 262.726 469.55 264.039 470.097 265.669ZM490.251 274.081V260.539H493.771V283.448H490.251V279.57H490.012C489.475 280.733 488.64 281.722 487.507 282.538C486.373 283.343 484.941 283.746 483.211 283.746C481.779 283.746 480.507 283.433 479.393 282.806C478.279 282.17 477.404 281.215 476.768 279.943C476.132 278.66 475.813 277.044 475.813 275.095V260.539H479.333V274.857C479.333 276.527 479.801 277.86 480.735 278.854C481.68 279.848 482.883 280.345 484.345 280.345C485.22 280.345 486.11 280.122 487.014 279.674C487.929 279.227 488.695 278.541 489.311 277.616C489.938 276.691 490.251 275.513 490.251 274.081ZM503.738 252.902V283.448H500.218V252.902H503.738ZM520.148 260.539V263.521H508.275V260.539H520.148ZM511.736 255.05H515.256V276.885C515.256 277.879 515.4 278.625 515.688 279.122C515.986 279.61 516.364 279.938 516.822 280.107C517.289 280.266 517.781 280.345 518.298 280.345C518.686 280.345 519.004 280.325 519.253 280.286C519.501 280.236 519.7 280.196 519.849 280.166L520.565 283.328C520.327 283.418 519.993 283.507 519.566 283.597C519.138 283.696 518.596 283.746 517.94 283.746C516.946 283.746 515.971 283.532 515.017 283.105C514.072 282.677 513.287 282.026 512.66 281.151C512.044 280.276 511.736 279.172 511.736 277.84V255.05ZM525.442 283.448V260.539H528.962V283.448H525.442ZM527.232 256.72C526.546 256.72 525.954 256.487 525.457 256.019C524.97 255.552 524.726 254.99 524.726 254.334C524.726 253.678 524.97 253.116 525.457 252.649C525.954 252.181 526.546 251.948 527.232 251.948C527.918 251.948 528.505 252.181 528.992 252.649C529.489 253.116 529.738 253.678 529.738 254.334C529.738 254.99 529.489 255.552 528.992 256.019C528.505 256.487 527.918 256.72 527.232 256.72ZM538.929 269.666V283.448H535.409V260.539H538.81V264.118H539.108C539.645 262.955 540.46 262.02 541.554 261.314C542.648 260.598 544.06 260.24 545.79 260.24C547.341 260.24 548.698 260.558 549.862 261.195C551.025 261.821 551.93 262.776 552.576 264.058C553.222 265.331 553.545 266.942 553.545 268.891V283.448H550.026V269.129C550.026 267.33 549.558 265.928 548.624 264.923C547.689 263.909 546.406 263.402 544.776 263.402C543.652 263.402 542.648 263.646 541.763 264.133C540.888 264.62 540.197 265.331 539.69 266.266C539.183 267.2 538.929 268.334 538.929 269.666ZM569.225 292.516C567.524 292.516 566.063 292.297 564.84 291.86C563.617 291.432 562.597 290.865 561.782 290.159C560.977 289.463 560.335 288.718 559.858 287.922L562.662 285.953C562.98 286.371 563.383 286.848 563.87 287.385C564.357 287.932 565.024 288.404 565.869 288.802C566.724 289.21 567.843 289.414 569.225 289.414C571.074 289.414 572.6 288.966 573.803 288.071C575.007 287.176 575.608 285.774 575.608 283.865V279.212H575.31C575.051 279.629 574.683 280.146 574.206 280.763C573.739 281.37 573.063 281.911 572.178 282.389C571.303 282.856 570.119 283.09 568.628 283.09C566.779 283.09 565.118 282.652 563.646 281.777C562.185 280.902 561.026 279.629 560.171 277.959C559.326 276.289 558.904 274.26 558.904 271.874C558.904 269.527 559.316 267.484 560.142 265.744C560.967 263.994 562.115 262.642 563.587 261.687C565.058 260.722 566.759 260.24 568.688 260.24C570.179 260.24 571.362 260.489 572.237 260.986C573.122 261.473 573.798 262.03 574.266 262.656C574.743 263.273 575.111 263.78 575.369 264.178H575.727V260.539H579.128V284.104C579.128 286.073 578.681 287.673 577.786 288.906C576.901 290.149 575.708 291.059 574.206 291.636C572.715 292.222 571.054 292.516 569.225 292.516ZM569.105 279.928C570.517 279.928 571.71 279.605 572.685 278.958C573.659 278.312 574.4 277.382 574.907 276.169C575.414 274.956 575.668 273.504 575.668 271.814C575.668 270.164 575.419 268.707 574.922 267.444C574.425 266.181 573.689 265.192 572.715 264.476C571.74 263.76 570.537 263.402 569.105 263.402C567.614 263.402 566.371 263.78 565.377 264.536C564.392 265.291 563.651 266.306 563.154 267.578C562.667 268.851 562.423 270.263 562.423 271.814C562.423 273.405 562.672 274.812 563.169 276.035C563.676 277.248 564.422 278.203 565.406 278.899C566.401 279.585 567.634 279.928 569.105 279.928Z" fill="#FECC0A"/>
</svg>
